<mxfile host="Electron" modified="2023-04-25T10:52:47.238Z" agent="Mozilla/5.0 (Windows NT 10.0; Win64; x64) AppleWebKit/537.36 (KHTML, like Gecko) draw.io/21.2.1 Chrome/112.0.5615.87 Electron/24.1.2 Safari/537.36" etag="WjQoeCKuUo7nKw31F78A" version="21.2.1" type="device">
  <diagram id="asrPZMm98rYkqawTgu1p" name="Page-1">
    <mxGraphModel dx="1289" dy="789" grid="1" gridSize="10" guides="1" tooltips="1" connect="1" arrows="1" fold="1" page="1" pageScale="1" pageWidth="1080" pageHeight="1480" background="none" math="0" shadow="0">
      <root>
        <mxCell id="0" />
        <mxCell id="1" parent="0" />
        <mxCell id="ZRe5EipwopZjVvHXA0qT-22" value="Takes in charge" style="endArrow=open;startArrow=none;html=1;shadow=0;strokeColor=#000000;strokeWidth=1;fontFamily=CMU Serif;fontSize=24;fontColor=#000000;exitX=0.5;exitY=0;exitDx=0;exitDy=0;startFill=0;endFill=0;edgeStyle=orthogonalEdgeStyle;spacingLeft=0;spacingBottom=0;spacingRight=0;verticalAlign=middle;entryX=0.75;entryY=1;entryDx=0;entryDy=0;" parent="1" source="ZRe5EipwopZjVvHXA0qT-9" target="ZRe5EipwopZjVvHXA0qT-1" edge="1">
          <mxGeometry x="-0.3902" width="50" height="50" relative="1" as="geometry">
            <mxPoint x="270" y="550" as="sourcePoint" />
            <mxPoint x="670" y="810" as="targetPoint" />
            <Array as="points">
              <mxPoint x="940" y="1220" />
              <mxPoint x="600" y="1220" />
            </Array>
            <mxPoint as="offset" />
          </mxGeometry>
        </mxCell>
        <mxCell id="ZRe5EipwopZjVvHXA0qT-12" value="&lt;b style=&quot;font-size: 24px;&quot;&gt;Doctor Nolan&lt;/b&gt;&lt;br style=&quot;font-size: 24px;&quot;&gt;Doctor in the asylum" style="whiteSpace=wrap;html=1;fontFamily=CMU Serif;fontColor=#000000;strokeColor=#000000;rounded=1;verticalAlign=middle;fontSize=24;" parent="1" vertex="1">
          <mxGeometry x="20" y="1300" width="240" height="160" as="geometry" />
        </mxCell>
        <mxCell id="ZRe5EipwopZjVvHXA0qT-17" value="&lt;font style=&quot;font-size: 24px;&quot;&gt;Helps&lt;/font&gt;" style="edgeStyle=orthogonalEdgeStyle;orthogonalLoop=1;jettySize=auto;html=1;shadow=0;startArrow=none;startFill=0;endArrow=open;endFill=0;fontFamily=CMU Serif;fontColor=#000000;fontSize=24;strokeColor=#000000;entryX=0.25;entryY=1;entryDx=0;entryDy=0;exitX=0.5;exitY=0;exitDx=0;exitDy=0;verticalAlign=middle;" parent="1" source="ZRe5EipwopZjVvHXA0qT-12" target="ZRe5EipwopZjVvHXA0qT-1" edge="1">
          <mxGeometry x="-0.3902" relative="1" as="geometry">
            <mxPoint x="150" y="700" as="sourcePoint" />
            <mxPoint x="260" y="600" as="targetPoint" />
            <Array as="points">
              <mxPoint x="140" y="1220" />
              <mxPoint x="480" y="1220" />
            </Array>
            <mxPoint as="offset" />
          </mxGeometry>
        </mxCell>
        <mxCell id="ZRe5EipwopZjVvHXA0qT-9" value="&lt;b style=&quot;font-size: 24px;&quot;&gt;Doctor Gordon&lt;/b&gt;&lt;br style=&quot;font-size: 24px;&quot;&gt;Psychiatrist" style="whiteSpace=wrap;html=1;fontFamily=CMU Serif;fontColor=#000000;strokeColor=#000000;rounded=1;verticalAlign=middle;fontSize=24;" parent="1" vertex="1">
          <mxGeometry x="820" y="1300" width="240" height="160" as="geometry" />
        </mxCell>
        <mxCell id="ZRe5EipwopZjVvHXA0qT-1" value="&lt;font data-font-src=&quot;https://fontlibrary.org/assets/fonts/cmu-sans-serif/0da0d92e6bacf5e091c1ae85c4da581d/1b24573c1e6cf956df63c20903efe11d/CMUSansSerifMedium.ttf&quot; style=&quot;font-size: 24px;&quot;&gt;&lt;b style=&quot;font-size: 24px;&quot;&gt;Esther Greenwood&lt;/b&gt;&lt;br style=&quot;font-size: 24px;&quot;&gt;19&lt;br&gt;In college/mentally ill&lt;br&gt;Protagonist&lt;br style=&quot;font-size: 24px;&quot;&gt;&lt;/font&gt;" style="whiteSpace=wrap;html=1;fontFamily=CMU Serif;strokeColor=#000000;fontColor=#000000;fontSize=24;rounded=1;verticalAlign=middle;" parent="1" vertex="1">
          <mxGeometry x="420" y="660" width="240" height="160" as="geometry" />
        </mxCell>
        <mxCell id="ZRe5EipwopZjVvHXA0qT-7" value="&lt;b style=&quot;font-size: 24px;&quot;&gt;Doreen&lt;/b&gt;&lt;br style=&quot;font-size: 24px;&quot;&gt;Society girlâ€™s&lt;br&gt;&amp;nbsp;college in the South" style="whiteSpace=wrap;html=1;fontFamily=CMU Serif;fontColor=#000000;strokeColor=#000000;rounded=1;verticalAlign=middle;fontSize=24;" parent="1" vertex="1">
          <mxGeometry x="20" y="340" width="240" height="160" as="geometry" />
        </mxCell>
        <mxCell id="ZRe5EipwopZjVvHXA0qT-23" value="&lt;b style=&quot;font-size: 24px;&quot;&gt;Betsy&lt;/b&gt;&lt;br style=&quot;font-size: 24px;&quot;&gt;Another writer" style="whiteSpace=wrap;html=1;fontFamily=CMU Serif;fontColor=#000000;strokeColor=#000000;rounded=1;verticalAlign=middle;fontSize=24;" parent="1" vertex="1">
          <mxGeometry x="820" y="980" width="240" height="160" as="geometry" />
        </mxCell>
        <mxCell id="ZRe5EipwopZjVvHXA0qT-24" value="Friends" style="edgeStyle=orthogonalEdgeStyle;jumpSize=1;orthogonalLoop=1;jettySize=auto;html=1;shadow=0;startArrow=open;startFill=0;endArrow=open;endFill=0;strokeColor=#000000;strokeWidth=1;fontFamily=CMU Serif;fontSize=24;fontColor=#000000;verticalAlign=middle;exitX=1;exitY=0.75;exitDx=0;exitDy=0;entryX=0.5;entryY=0;entryDx=0;entryDy=0;" parent="1" source="ZRe5EipwopZjVvHXA0qT-1" target="ZRe5EipwopZjVvHXA0qT-23" edge="1">
          <mxGeometry y="320" as="geometry">
            <Array as="points">
              <mxPoint x="740" y="780" />
              <mxPoint x="740" y="880" />
              <mxPoint x="940" y="880" />
            </Array>
            <mxPoint x="40" as="offset" />
          </mxGeometry>
        </mxCell>
        <mxCell id="ZRe5EipwopZjVvHXA0qT-25" value="&lt;span style=&quot;font-size: 24px;&quot;&gt;&lt;b&gt;Buddy Willard&lt;/b&gt;&lt;br&gt;Fell in love with Esther during college&lt;br&gt;&lt;/span&gt;" style="whiteSpace=wrap;html=1;fontFamily=CMU Serif;fontColor=#000000;strokeColor=#000000;rounded=1;verticalAlign=middle;fontSize=24;" parent="1" vertex="1">
          <mxGeometry x="820" y="340" width="240" height="160" as="geometry" />
        </mxCell>
        <mxCell id="ZRe5EipwopZjVvHXA0qT-27" value="&lt;b&gt;Jay Cee&lt;br&gt;&lt;/b&gt;Old, ugly woman" style="whiteSpace=wrap;html=1;fontFamily=CMU Serif;fontColor=#000000;strokeColor=#000000;rounded=1;verticalAlign=middle;fontSize=24;" parent="1" vertex="1">
          <mxGeometry x="20" y="660" width="240" height="160" as="geometry" />
        </mxCell>
        <mxCell id="ZRe5EipwopZjVvHXA0qT-28" value="Boss" style="edgeStyle=orthogonalEdgeStyle;jumpSize=1;orthogonalLoop=1;jettySize=auto;html=1;shadow=0;startArrow=none;startFill=0;endArrow=open;endFill=0;strokeColor=#000000;strokeWidth=1;fontFamily=CMU Serif;fontSize=24;fontColor=#000000;verticalAlign=middle;" parent="1" source="ZRe5EipwopZjVvHXA0qT-27" target="ZRe5EipwopZjVvHXA0qT-1" edge="1">
          <mxGeometry x="20" y="380" as="geometry" />
        </mxCell>
        <mxCell id="adQvtYUNpyKJzg4e-Kue-1" value="&lt;b style=&quot;font-size: 24px;&quot;&gt;Lenny&amp;nbsp;&lt;/b&gt;&lt;b&gt;Shepherd&lt;br&gt;&lt;/b&gt;DJ in New-York" style="whiteSpace=wrap;html=1;fontFamily=CMU Serif;fontColor=#000000;strokeColor=#000000;rounded=1;verticalAlign=middle;fontSize=24;" vertex="1" parent="1">
          <mxGeometry x="20" y="20" width="240" height="160" as="geometry" />
        </mxCell>
        <mxCell id="adQvtYUNpyKJzg4e-Kue-2" value="&lt;font&gt;In love&lt;br&gt;&lt;/font&gt;" style="edgeStyle=orthogonalEdgeStyle;orthogonalLoop=1;jettySize=auto;html=1;shadow=0;startArrow=open;startFill=0;endArrow=open;endFill=0;fontFamily=CMU Serif;fontColor=#000000;fontSize=24;strokeColor=#000000;verticalAlign=middle;exitX=0.5;exitY=0;exitDx=0;exitDy=0;" edge="1" parent="1" target="adQvtYUNpyKJzg4e-Kue-1" source="ZRe5EipwopZjVvHXA0qT-7">
          <mxGeometry x="20" y="20" as="geometry">
            <mxPoint x="540" y="340" as="sourcePoint" />
          </mxGeometry>
        </mxCell>
        <mxCell id="adQvtYUNpyKJzg4e-Kue-3" value="&lt;b style=&quot;font-size: 24px;&quot;&gt;Mrs Willard&lt;/b&gt;" style="whiteSpace=wrap;html=1;fontFamily=CMU Serif;fontColor=#000000;strokeColor=#000000;rounded=1;verticalAlign=middle;fontSize=24;" vertex="1" parent="1">
          <mxGeometry x="820" y="20" width="240" height="160" as="geometry" />
        </mxCell>
        <mxCell id="adQvtYUNpyKJzg4e-Kue-5" value="Engaged" style="endArrow=open;startArrow=open;html=1;shadow=0;strokeColor=#000000;strokeWidth=1;fontFamily=CMU Serif;fontSize=24;fontColor=#000000;exitX=0.25;exitY=1;exitDx=0;exitDy=0;startFill=0;endFill=0;edgeStyle=orthogonalEdgeStyle;spacingLeft=0;spacingBottom=0;spacingRight=0;verticalAlign=middle;entryX=1;entryY=0.25;entryDx=0;entryDy=0;" edge="1" parent="1" source="ZRe5EipwopZjVvHXA0qT-25" target="ZRe5EipwopZjVvHXA0qT-1">
          <mxGeometry x="-0.2857" width="50" height="50" relative="1" as="geometry">
            <mxPoint x="1040" y="600" as="sourcePoint" />
            <mxPoint x="700" y="440" as="targetPoint" />
            <Array as="points">
              <mxPoint x="880" y="580" />
              <mxPoint x="740" y="580" />
              <mxPoint x="740" y="700" />
            </Array>
            <mxPoint as="offset" />
          </mxGeometry>
        </mxCell>
        <mxCell id="adQvtYUNpyKJzg4e-Kue-6" value="&lt;font&gt;Mother/Son&lt;br&gt;&lt;/font&gt;" style="edgeStyle=orthogonalEdgeStyle;orthogonalLoop=1;jettySize=auto;html=1;shadow=0;startArrow=open;startFill=0;endArrow=open;endFill=0;fontFamily=CMU Serif;fontColor=#000000;fontSize=24;strokeColor=#000000;verticalAlign=middle;entryX=0.5;entryY=1;entryDx=0;entryDy=0;exitX=0.5;exitY=0;exitDx=0;exitDy=0;" edge="1" parent="1" source="ZRe5EipwopZjVvHXA0qT-25" target="adQvtYUNpyKJzg4e-Kue-3">
          <mxGeometry x="419.55" y="20" as="geometry">
            <mxPoint x="939.55" y="340" as="sourcePoint" />
            <mxPoint x="939.55" y="180" as="targetPoint" />
          </mxGeometry>
        </mxCell>
        <mxCell id="adQvtYUNpyKJzg4e-Kue-7" value="Friends in New-York" style="endArrow=open;startArrow=open;html=1;shadow=0;strokeColor=#000000;strokeWidth=1;fontFamily=CMU Serif;fontSize=24;fontColor=#000000;exitX=0.5;exitY=1;exitDx=0;exitDy=0;startFill=0;endFill=0;edgeStyle=orthogonalEdgeStyle;spacingLeft=0;spacingBottom=0;spacingRight=0;verticalAlign=middle;entryX=0;entryY=0.25;entryDx=0;entryDy=0;" edge="1" parent="1" source="ZRe5EipwopZjVvHXA0qT-7" target="ZRe5EipwopZjVvHXA0qT-1">
          <mxGeometry x="-0.25" width="50" height="50" relative="1" as="geometry">
            <mxPoint x="550" y="480" as="sourcePoint" />
            <mxPoint x="270" y="680" as="targetPoint" />
            <Array as="points">
              <mxPoint x="140" y="580" />
              <mxPoint x="340" y="580" />
              <mxPoint x="340" y="700" />
            </Array>
            <mxPoint as="offset" />
          </mxGeometry>
        </mxCell>
        <mxCell id="adQvtYUNpyKJzg4e-Kue-8" value="&lt;b style=&quot;font-size: 24px;&quot;&gt;Mrs Greenwood&lt;/b&gt;" style="whiteSpace=wrap;html=1;fontFamily=CMU Serif;fontColor=#000000;strokeColor=#000000;rounded=1;verticalAlign=middle;fontSize=24;" vertex="1" parent="1">
          <mxGeometry x="420" y="340" width="240" height="160" as="geometry" />
        </mxCell>
        <mxCell id="adQvtYUNpyKJzg4e-Kue-9" value="&lt;font&gt;Mother/Daughter&lt;br&gt;&lt;/font&gt;" style="edgeStyle=orthogonalEdgeStyle;orthogonalLoop=1;jettySize=auto;html=1;shadow=0;startArrow=open;startFill=0;endArrow=open;endFill=0;fontFamily=CMU Serif;fontColor=#000000;fontSize=24;strokeColor=#000000;verticalAlign=middle;entryX=0.5;entryY=1;entryDx=0;entryDy=0;exitX=0.5;exitY=0;exitDx=0;exitDy=0;" edge="1" parent="1" source="ZRe5EipwopZjVvHXA0qT-1" target="adQvtYUNpyKJzg4e-Kue-8">
          <mxGeometry x="19.100000000000023" y="340" as="geometry">
            <mxPoint x="539.55" y="660" as="sourcePoint" />
            <mxPoint x="539.55" y="500" as="targetPoint" />
          </mxGeometry>
        </mxCell>
        <mxCell id="adQvtYUNpyKJzg4e-Kue-10" value="Friends" style="endArrow=open;startArrow=open;html=1;shadow=0;strokeColor=#000000;strokeWidth=1;fontFamily=CMU Serif;fontSize=24;fontColor=#000000;exitX=0;exitY=0.75;exitDx=0;exitDy=0;startFill=0;endFill=0;edgeStyle=orthogonalEdgeStyle;spacingLeft=0;spacingBottom=0;spacingRight=0;verticalAlign=middle;entryX=1;entryY=0.25;entryDx=0;entryDy=0;" edge="1" parent="1" source="adQvtYUNpyKJzg4e-Kue-3" target="adQvtYUNpyKJzg4e-Kue-8">
          <mxGeometry width="50" height="50" relative="1" as="geometry">
            <mxPoint x="940" y="190" as="sourcePoint" />
            <mxPoint x="660" y="390" as="targetPoint" />
            <Array as="points">
              <mxPoint x="740" y="140" />
              <mxPoint x="740" y="380" />
            </Array>
          </mxGeometry>
        </mxCell>
        <mxCell id="adQvtYUNpyKJzg4e-Kue-11" value="&lt;b style=&quot;font-size: 24px;&quot;&gt;Mrs Guinea&lt;/b&gt;&lt;br style=&quot;font-size: 24px;&quot;&gt;Gave Esther a scholarship and paid the asylum fees" style="whiteSpace=wrap;html=1;fontFamily=CMU Serif;fontColor=#000000;strokeColor=#000000;rounded=1;verticalAlign=middle;fontSize=24;" vertex="1" parent="1">
          <mxGeometry x="420" y="1300" width="240" height="160" as="geometry" />
        </mxCell>
        <mxCell id="adQvtYUNpyKJzg4e-Kue-12" value="Model" style="edgeStyle=orthogonalEdgeStyle;jumpSize=1;orthogonalLoop=1;jettySize=auto;html=1;shadow=0;startArrow=none;startFill=0;endArrow=open;endFill=0;strokeColor=#000000;strokeWidth=1;fontFamily=CMU Serif;fontSize=24;fontColor=#000000;verticalAlign=middle;exitX=0.5;exitY=0;exitDx=0;exitDy=0;entryX=0.5;entryY=1;entryDx=0;entryDy=0;" edge="1" parent="1" source="adQvtYUNpyKJzg4e-Kue-11" target="ZRe5EipwopZjVvHXA0qT-1">
          <mxGeometry x="30" y="390" as="geometry">
            <mxPoint x="270" y="750" as="sourcePoint" />
            <mxPoint x="430" y="750" as="targetPoint" />
          </mxGeometry>
        </mxCell>
        <mxCell id="adQvtYUNpyKJzg4e-Kue-13" value="&lt;span style=&quot;font-size: 24px;&quot;&gt;&lt;b&gt;Joan&lt;/b&gt;&lt;br&gt;Meets Esther in the asylum&lt;br&gt;&lt;/span&gt;" style="whiteSpace=wrap;html=1;fontFamily=CMU Serif;fontColor=#000000;strokeColor=#000000;rounded=1;verticalAlign=middle;fontSize=24;" vertex="1" parent="1">
          <mxGeometry x="820" y="660" width="240" height="160" as="geometry" />
        </mxCell>
        <mxCell id="adQvtYUNpyKJzg4e-Kue-14" value="&lt;font&gt;Friends&lt;br&gt;&lt;/font&gt;" style="edgeStyle=orthogonalEdgeStyle;orthogonalLoop=1;jettySize=auto;html=1;shadow=0;startArrow=open;startFill=0;endArrow=open;endFill=0;fontFamily=CMU Serif;fontColor=#000000;fontSize=24;strokeColor=#000000;verticalAlign=middle;entryX=0;entryY=0.5;entryDx=0;entryDy=0;exitX=1;exitY=0.5;exitDx=0;exitDy=0;" edge="1" parent="1" source="ZRe5EipwopZjVvHXA0qT-1" target="adQvtYUNpyKJzg4e-Kue-13">
          <mxGeometry x="29.100000000000023" y="350" as="geometry">
            <mxPoint x="550" y="670" as="sourcePoint" />
            <mxPoint x="550" y="510" as="targetPoint" />
          </mxGeometry>
        </mxCell>
        <mxCell id="adQvtYUNpyKJzg4e-Kue-15" value="&lt;font&gt;Were&lt;br&gt;dating&lt;br&gt;&lt;/font&gt;" style="edgeStyle=orthogonalEdgeStyle;orthogonalLoop=1;jettySize=auto;html=1;shadow=0;startArrow=open;startFill=0;endArrow=open;endFill=0;fontFamily=CMU Serif;fontColor=#000000;fontSize=24;strokeColor=#000000;verticalAlign=middle;entryX=0.5;entryY=1;entryDx=0;entryDy=0;exitX=0.5;exitY=0;exitDx=0;exitDy=0;" edge="1" parent="1" source="adQvtYUNpyKJzg4e-Kue-13" target="ZRe5EipwopZjVvHXA0qT-25">
          <mxGeometry x="39.10000000000002" y="360" as="geometry">
            <mxPoint x="670" y="750" as="sourcePoint" />
            <mxPoint x="830" y="750" as="targetPoint" />
          </mxGeometry>
        </mxCell>
        <mxCell id="adQvtYUNpyKJzg4e-Kue-16" value="&lt;b style=&quot;font-size: 24px;&quot;&gt;Valerie&lt;/b&gt;&lt;br style=&quot;font-size: 24px;&quot;&gt;Meets Esther in the asylum" style="whiteSpace=wrap;html=1;fontFamily=CMU Serif;fontColor=#000000;strokeColor=#000000;rounded=1;verticalAlign=middle;fontSize=24;" vertex="1" parent="1">
          <mxGeometry x="20" y="980" width="240" height="160" as="geometry" />
        </mxCell>
        <mxCell id="adQvtYUNpyKJzg4e-Kue-17" value="Friends" style="edgeStyle=orthogonalEdgeStyle;jumpSize=1;orthogonalLoop=1;jettySize=auto;html=1;shadow=0;startArrow=open;startFill=0;endArrow=open;endFill=0;strokeColor=#000000;strokeWidth=1;fontFamily=CMU Serif;fontSize=24;fontColor=#000000;verticalAlign=middle;exitX=0;exitY=0.75;exitDx=0;exitDy=0;entryX=0.5;entryY=0;entryDx=0;entryDy=0;" edge="1" parent="1" source="ZRe5EipwopZjVvHXA0qT-1" target="adQvtYUNpyKJzg4e-Kue-16">
          <mxGeometry y="320" as="geometry">
            <mxPoint x="670" y="790" as="sourcePoint" />
            <mxPoint x="950" y="990" as="targetPoint" />
            <Array as="points">
              <mxPoint x="340" y="780" />
              <mxPoint x="340" y="900" />
              <mxPoint x="140" y="900" />
            </Array>
            <mxPoint x="-40" y="20" as="offset" />
          </mxGeometry>
        </mxCell>
        <mxCell id="adQvtYUNpyKJzg4e-Kue-18" value="&lt;b&gt;Marco&lt;/b&gt;&lt;br&gt;Agressed Esther for her diamond" style="whiteSpace=wrap;html=1;fontFamily=CMU Serif;fontColor=#000000;strokeColor=#000000;rounded=1;verticalAlign=middle;fontSize=24;" vertex="1" parent="1">
          <mxGeometry x="420" y="20" width="240" height="160" as="geometry" />
        </mxCell>
        <mxCell id="adQvtYUNpyKJzg4e-Kue-19" value="&lt;font&gt;Friends&lt;br&gt;&lt;/font&gt;" style="edgeStyle=orthogonalEdgeStyle;orthogonalLoop=1;jettySize=auto;html=1;shadow=0;startArrow=open;startFill=0;endArrow=open;endFill=0;fontFamily=CMU Serif;fontColor=#000000;fontSize=24;strokeColor=#000000;verticalAlign=middle;exitX=0;exitY=0.5;exitDx=0;exitDy=0;entryX=1;entryY=0.5;entryDx=0;entryDy=0;" edge="1" parent="1" source="adQvtYUNpyKJzg4e-Kue-18" target="adQvtYUNpyKJzg4e-Kue-1">
          <mxGeometry x="30" y="30" as="geometry">
            <mxPoint x="150" y="350" as="sourcePoint" />
            <mxPoint x="150" y="190" as="targetPoint" />
          </mxGeometry>
        </mxCell>
      </root>
    </mxGraphModel>
  </diagram>
</mxfile>
